<svg xmlns="http://www.w3.org/2000/svg" width="960" height="540" viewBox="0 0 960 540" role="img" aria-label="AIOps agent workflow visual">
  <defs>
    <linearGradient id="bg" x1="0" y1="0" x2="1" y2="1">
      <stop offset="0%" stop-color="#020617"/>
      <stop offset="58%" stop-color="#111827"/>
      <stop offset="100%" stop-color="#1e1b4b"/>
    </linearGradient>
    <linearGradient id="line" x1="0" y1="0" x2="1" y2="0">
      <stop offset="0%" stop-color="#60a5fa"/>
      <stop offset="100%" stop-color="#a78bfa"/>
    </linearGradient>
  </defs>
  <rect width="960" height="540" fill="url(#bg)"/>
  <circle cx="760" cy="90" r="160" fill="#2563eb" opacity="0.22"/>
  <circle cx="120" cy="460" r="180" fill="#7c3aed" opacity="0.16"/>
  <g fill="none" stroke="url(#line)" stroke-width="4" opacity="0.75">
    <path d="M220 190 C340 120 470 120 590 190"/>
    <path d="M300 330 C420 400 540 400 660 330"/>
    <path d="M480 170 L480 350"/>
  </g>
  <g font-family="Inter, Arial, sans-serif" font-size="22" font-weight="600">
    <rect x="115" y="145" width="210" height="88" rx="22" fill="#ffffff" opacity="0.08" stroke="#ffffff" stroke-opacity="0.18"/>
    <text x="155" y="198" fill="#dbeafe">Supervisor</text>
    <rect x="375" y="145" width="210" height="88" rx="22" fill="#ffffff" opacity="0.08" stroke="#ffffff" stroke-opacity="0.18"/>
    <text x="430" y="198" fill="#dbeafe">Planner</text>
    <rect x="635" y="145" width="210" height="88" rx="22" fill="#ffffff" opacity="0.08" stroke="#ffffff" stroke-opacity="0.18"/>
    <text x="685" y="198" fill="#dbeafe">Executor</text>
  </g>
  <g font-family="Inter, Arial, sans-serif" font-size="18" font-weight="600" fill="#e0e7ff">
    <rect x="260" y="315" width="100" height="46" rx="23" fill="#2563eb" opacity="0.28"/>
    <text x="291" y="345">RAG</text>
    <rect x="410" y="315" width="100" height="46" rx="23" fill="#7c3aed" opacity="0.28"/>
    <text x="442" y="345">MCP</text>
    <rect x="560" y="315" width="100" height="46" rx="23" fill="#0891b2" opacity="0.28"/>
    <text x="592" y="345">SSE</text>
  </g>
</svg>
