<svg xmlns="http://www.w3.org/2000/svg" width="960" height="540" viewBox="0 0 960 540" role="img" aria-label="Bird audio recognition visual">
  <defs>
    <linearGradient id="bg" x1="0" y1="0" x2="1" y2="1">
      <stop offset="0%" stop-color="#020617"/>
      <stop offset="58%" stop-color="#111827"/>
      <stop offset="100%" stop-color="#312e81"/>
    </linearGradient>
    <linearGradient id="wave" x1="0" y1="1" x2="0" y2="0">
      <stop offset="0%" stop-color="#60a5fa"/>
      <stop offset="100%" stop-color="#c4b5fd"/>
    </linearGradient>
  </defs>
  <rect width="960" height="540" fill="url(#bg)"/>
  <circle cx="780" cy="110" r="160" fill="#60a5fa" opacity="0.18"/>
  <circle cx="160" cy="430" r="170" fill="#8b5cf6" opacity="0.16"/>
  <g transform="translate(165 120)">
    <rect x="0" y="150" width="18" height="90" rx="9" fill="url(#wave)"/>
    <rect x="44" y="96" width="18" height="144" rx="9" fill="url(#wave)"/>
    <rect x="88" y="132" width="18" height="108" rx="9" fill="url(#wave)"/>
    <rect x="132" y="60" width="18" height="180" rx="9" fill="url(#wave)"/>
    <rect x="176" y="118" width="18" height="122" rx="9" fill="url(#wave)"/>
    <rect x="220" y="28" width="18" height="212" rx="9" fill="url(#wave)"/>
    <rect x="264" y="94" width="18" height="146" rx="9" fill="url(#wave)"/>
    <rect x="308" y="70" width="18" height="170" rx="9" fill="url(#wave)"/>
    <rect x="352" y="126" width="18" height="114" rx="9" fill="url(#wave)"/>
    <rect x="396" y="52" width="18" height="188" rx="9" fill="url(#wave)"/>
  </g>
  <g font-family="Inter, Arial, sans-serif" font-size="18" font-weight="600" fill="#e0e7ff">
    <rect x="545" y="250" width="150" height="46" rx="23" fill="#ffffff" opacity="0.09"/>
    <text x="578" y="280">FastAPI</text>
    <rect x="710" y="250" width="150" height="46" rx="23" fill="#ffffff" opacity="0.09"/>
    <text x="748" y="280">PyTorch</text>
    <rect x="610" y="320" width="180" height="46" rx="23" fill="#ffffff" opacity="0.09"/>
    <text x="660" y="350">Web/App</text>
  </g>
</svg>
