<svg xmlns="http://www.w3.org/2000/svg" width="960" height="540" viewBox="0 0 960 540" role="img" aria-label="Backend cache and order flow visual">
  <defs>
    <linearGradient id="bg" x1="0" y1="0" x2="1" y2="1">
      <stop offset="0%" stop-color="#020617"/>
      <stop offset="55%" stop-color="#111827"/>
      <stop offset="100%" stop-color="#064e3b"/>
    </linearGradient>
    <linearGradient id="bar" x1="0" y1="0" x2="1" y2="0">
      <stop offset="0%" stop-color="#34d399"/>
      <stop offset="100%" stop-color="#60a5fa"/>
    </linearGradient>
  </defs>
  <rect width="960" height="540" fill="url(#bg)"/>
  <circle cx="790" cy="110" r="150" fill="#10b981" opacity="0.18"/>
  <circle cx="180" cy="430" r="160" fill="#2563eb" opacity="0.16"/>
  <g font-family="Inter, Arial, sans-serif" font-size="22" font-weight="600">
    <rect x="120" y="140" width="170" height="90" rx="22" fill="#ffffff" opacity="0.08" stroke="#ffffff" stroke-opacity="0.18"/>
    <text x="180" y="194" fill="#d1fae5">JWT</text>
    <rect x="395" y="140" width="170" height="90" rx="22" fill="#ffffff" opacity="0.08" stroke="#ffffff" stroke-opacity="0.18"/>
    <text x="445" y="194" fill="#d1fae5">Redis</text>
    <rect x="670" y="140" width="170" height="90" rx="22" fill="#ffffff" opacity="0.08" stroke="#ffffff" stroke-opacity="0.18"/>
    <text x="725" y="194" fill="#d1fae5">MySQL</text>
  </g>
  <path d="M290 185 L395 185 M565 185 L670 185" stroke="#34d399" stroke-width="5" stroke-linecap="round"/>
  <rect x="190" y="330" width="580" height="18" rx="9" fill="#334155"/>
  <rect x="190" y="330" width="390" height="18" rx="9" fill="url(#bar)"/>
  <g font-family="Inter, Arial, sans-serif" font-size="18" font-weight="600" fill="#e2e8f0">
    <rect x="235" y="385" width="110" height="46" rx="23" fill="#ffffff" opacity="0.09"/>
    <text x="273" y="415">Lua</text>
    <rect x="385" y="385" width="150" height="46" rx="23" fill="#ffffff" opacity="0.09"/>
    <text x="420" y="415">Seckill</text>
    <rect x="575" y="385" width="150" height="46" rx="23" fill="#ffffff" opacity="0.09"/>
    <text x="615" y="415">Order</text>
  </g>
</svg>
